<?xml version="1.0" encoding="utf-8" standalone="no"?>
<!DOCTYPE svg PUBLIC "-//W3C//DTD SVG 1.1//EN"
  "http://www.w3.org/Graphics/SVG/1.1/DTD/svg11.dtd">
<svg xmlns:xlink="http://www.w3.org/1999/xlink" width="437.375625pt" height="325.986375pt" viewBox="0 0 437.375625 325.986375" xmlns="http://www.w3.org/2000/svg" version="1.1">
 <metadata>
  <rdf:RDF xmlns:dc="http://purl.org/dc/elements/1.1/" xmlns:cc="http://creativecommons.org/ns#" xmlns:rdf="http://www.w3.org/1999/02/22-rdf-syntax-ns#">
   <cc:Work>
    <dc:type rdf:resource="http://purl.org/dc/dcmitype/StillImage"/>
    <dc:date>2024-01-03T16:57:27.483522</dc:date>
    <dc:format>image/svg+xml</dc:format>
    <dc:creator>
     <cc:Agent>
      <dc:title>Matplotlib v3.8.2, https://matplotlib.org/</dc:title>
     </cc:Agent>
    </dc:creator>
   </cc:Work>
  </rdf:RDF>
 </metadata>
 <defs>
  <style type="text/css">*{stroke-linejoin: round; stroke-linecap: butt}</style>
 </defs>
 <g id="figure_1">
  <g id="patch_1">
   <path d="M 0 325.986375 
L 437.375625 325.986375 
L 437.375625 0 
L 0 0 
z
" style="fill: #ffffff"/>
  </g>
  <g id="axes_1">
   <g id="patch_2">
    <path d="M 43.78125 288.430125 
L 400.90125 288.430125 
L 400.90125 22.318125 
L 43.78125 22.318125 
z
" style="fill: #ffffff"/>
   </g>
   <g id="matplotlib.axis_1">
    <g id="xtick_1">
     <g id="line2d_1">
      <defs>
       <path id="ma823bcb229" d="M 0 0 
L 0 3.5 
" style="stroke: #000000; stroke-width: 0.8"/>
      </defs>
      <g>
       <use xlink:href="#ma823bcb229" x="96.086705" y="288.430125" style="stroke: #000000; stroke-width: 0.8"/>
      </g>
     </g>
     <g id="text_1">
      <!-- 20 -->
      <g transform="translate(89.724205 303.028562) scale(0.1 -0.1)">
       <defs>
        <path id="DejaVuSans-32" d="M 1228 531 
L 3431 531 
L 3431 0 
L 469 0 
L 469 531 
Q 828 903 1448 1529 
Q 2069 2156 2228 2338 
Q 2531 2678 2651 2914 
Q 2772 3150 2772 3378 
Q 2772 3750 2511 3984 
Q 2250 4219 1831 4219 
Q 1534 4219 1204 4116 
Q 875 4013 500 3803 
L 500 4441 
Q 881 4594 1212 4672 
Q 1544 4750 1819 4750 
Q 2544 4750 2975 4387 
Q 3406 4025 3406 3419 
Q 3406 3131 3298 2873 
Q 3191 2616 2906 2266 
Q 2828 2175 2409 1742 
Q 1991 1309 1228 531 
z
" transform="scale(0.015625)"/>
        <path id="DejaVuSans-30" d="M 2034 4250 
Q 1547 4250 1301 3770 
Q 1056 3291 1056 2328 
Q 1056 1369 1301 889 
Q 1547 409 2034 409 
Q 2525 409 2770 889 
Q 3016 1369 3016 2328 
Q 3016 3291 2770 3770 
Q 2525 4250 2034 4250 
z
M 2034 4750 
Q 2819 4750 3233 4129 
Q 3647 3509 3647 2328 
Q 3647 1150 3233 529 
Q 2819 -91 2034 -91 
Q 1250 -91 836 529 
Q 422 1150 422 2328 
Q 422 3509 836 4129 
Q 1250 4750 2034 4750 
z
" transform="scale(0.015625)"/>
       </defs>
       <use xlink:href="#DejaVuSans-32"/>
       <use xlink:href="#DejaVuSans-30" x="63.623047"/>
      </g>
     </g>
    </g>
    <g id="xtick_2">
     <g id="line2d_2">
      <g>
       <use xlink:href="#ma823bcb229" x="168.232159" y="288.430125" style="stroke: #000000; stroke-width: 0.8"/>
      </g>
     </g>
     <g id="text_2">
      <!-- 40 -->
      <g transform="translate(161.869659 303.028562) scale(0.1 -0.1)">
       <defs>
        <path id="DejaVuSans-34" d="M 2419 4116 
L 825 1625 
L 2419 1625 
L 2419 4116 
z
M 2253 4666 
L 3047 4666 
L 3047 1625 
L 3713 1625 
L 3713 1100 
L 3047 1100 
L 3047 0 
L 2419 0 
L 2419 1100 
L 313 1100 
L 313 1709 
L 2253 4666 
z
" transform="scale(0.015625)"/>
       </defs>
       <use xlink:href="#DejaVuSans-34"/>
       <use xlink:href="#DejaVuSans-30" x="63.623047"/>
      </g>
     </g>
    </g>
    <g id="xtick_3">
     <g id="line2d_3">
      <g>
       <use xlink:href="#ma823bcb229" x="240.377614" y="288.430125" style="stroke: #000000; stroke-width: 0.8"/>
      </g>
     </g>
     <g id="text_3">
      <!-- 60 -->
      <g transform="translate(234.015114 303.028562) scale(0.1 -0.1)">
       <defs>
        <path id="DejaVuSans-36" d="M 2113 2584 
Q 1688 2584 1439 2293 
Q 1191 2003 1191 1497 
Q 1191 994 1439 701 
Q 1688 409 2113 409 
Q 2538 409 2786 701 
Q 3034 994 3034 1497 
Q 3034 2003 2786 2293 
Q 2538 2584 2113 2584 
z
M 3366 4563 
L 3366 3988 
Q 3128 4100 2886 4159 
Q 2644 4219 2406 4219 
Q 1781 4219 1451 3797 
Q 1122 3375 1075 2522 
Q 1259 2794 1537 2939 
Q 1816 3084 2150 3084 
Q 2853 3084 3261 2657 
Q 3669 2231 3669 1497 
Q 3669 778 3244 343 
Q 2819 -91 2113 -91 
Q 1303 -91 875 529 
Q 447 1150 447 2328 
Q 447 3434 972 4092 
Q 1497 4750 2381 4750 
Q 2619 4750 2861 4703 
Q 3103 4656 3366 4563 
z
" transform="scale(0.015625)"/>
       </defs>
       <use xlink:href="#DejaVuSans-36"/>
       <use xlink:href="#DejaVuSans-30" x="63.623047"/>
      </g>
     </g>
    </g>
    <g id="xtick_4">
     <g id="line2d_4">
      <g>
       <use xlink:href="#ma823bcb229" x="312.523068" y="288.430125" style="stroke: #000000; stroke-width: 0.8"/>
      </g>
     </g>
     <g id="text_4">
      <!-- 80 -->
      <g transform="translate(306.160568 303.028562) scale(0.1 -0.1)">
       <defs>
        <path id="DejaVuSans-38" d="M 2034 2216 
Q 1584 2216 1326 1975 
Q 1069 1734 1069 1313 
Q 1069 891 1326 650 
Q 1584 409 2034 409 
Q 2484 409 2743 651 
Q 3003 894 3003 1313 
Q 3003 1734 2745 1975 
Q 2488 2216 2034 2216 
z
M 1403 2484 
Q 997 2584 770 2862 
Q 544 3141 544 3541 
Q 544 4100 942 4425 
Q 1341 4750 2034 4750 
Q 2731 4750 3128 4425 
Q 3525 4100 3525 3541 
Q 3525 3141 3298 2862 
Q 3072 2584 2669 2484 
Q 3125 2378 3379 2068 
Q 3634 1759 3634 1313 
Q 3634 634 3220 271 
Q 2806 -91 2034 -91 
Q 1263 -91 848 271 
Q 434 634 434 1313 
Q 434 1759 690 2068 
Q 947 2378 1403 2484 
z
M 1172 3481 
Q 1172 3119 1398 2916 
Q 1625 2713 2034 2713 
Q 2441 2713 2670 2916 
Q 2900 3119 2900 3481 
Q 2900 3844 2670 4047 
Q 2441 4250 2034 4250 
Q 1625 4250 1398 4047 
Q 1172 3844 1172 3481 
z
" transform="scale(0.015625)"/>
       </defs>
       <use xlink:href="#DejaVuSans-38"/>
       <use xlink:href="#DejaVuSans-30" x="63.623047"/>
      </g>
     </g>
    </g>
    <g id="xtick_5">
     <g id="line2d_5">
      <g>
       <use xlink:href="#ma823bcb229" x="384.668523" y="288.430125" style="stroke: #000000; stroke-width: 0.8"/>
      </g>
     </g>
     <g id="text_5">
      <!-- 100 -->
      <g transform="translate(375.124773 303.028562) scale(0.1 -0.1)">
       <defs>
        <path id="DejaVuSans-31" d="M 794 531 
L 1825 531 
L 1825 4091 
L 703 3866 
L 703 4441 
L 1819 4666 
L 2450 4666 
L 2450 531 
L 3481 531 
L 3481 0 
L 794 0 
L 794 531 
z
" transform="scale(0.015625)"/>
       </defs>
       <use xlink:href="#DejaVuSans-31"/>
       <use xlink:href="#DejaVuSans-30" x="63.623047"/>
       <use xlink:href="#DejaVuSans-30" x="127.246094"/>
      </g>
     </g>
    </g>
    <g id="text_6">
     <!-- Number of Attributes in the Policy -->
     <g transform="translate(137.665469 316.706687) scale(0.1 -0.1)">
      <defs>
       <path id="DejaVuSans-4e" d="M 628 4666 
L 1478 4666 
L 3547 763 
L 3547 4666 
L 4159 4666 
L 4159 0 
L 3309 0 
L 1241 3903 
L 1241 0 
L 628 0 
L 628 4666 
z
" transform="scale(0.015625)"/>
       <path id="DejaVuSans-75" d="M 544 1381 
L 544 3500 
L 1119 3500 
L 1119 1403 
Q 1119 906 1312 657 
Q 1506 409 1894 409 
Q 2359 409 2629 706 
Q 2900 1003 2900 1516 
L 2900 3500 
L 3475 3500 
L 3475 0 
L 2900 0 
L 2900 538 
Q 2691 219 2414 64 
Q 2138 -91 1772 -91 
Q 1169 -91 856 284 
Q 544 659 544 1381 
z
M 1991 3584 
L 1991 3584 
z
" transform="scale(0.015625)"/>
       <path id="DejaVuSans-6d" d="M 3328 2828 
Q 3544 3216 3844 3400 
Q 4144 3584 4550 3584 
Q 5097 3584 5394 3201 
Q 5691 2819 5691 2113 
L 5691 0 
L 5113 0 
L 5113 2094 
Q 5113 2597 4934 2840 
Q 4756 3084 4391 3084 
Q 3944 3084 3684 2787 
Q 3425 2491 3425 1978 
L 3425 0 
L 2847 0 
L 2847 2094 
Q 2847 2600 2669 2842 
Q 2491 3084 2119 3084 
Q 1678 3084 1418 2786 
Q 1159 2488 1159 1978 
L 1159 0 
L 581 0 
L 581 3500 
L 1159 3500 
L 1159 2956 
Q 1356 3278 1631 3431 
Q 1906 3584 2284 3584 
Q 2666 3584 2933 3390 
Q 3200 3197 3328 2828 
z
" transform="scale(0.015625)"/>
       <path id="DejaVuSans-62" d="M 3116 1747 
Q 3116 2381 2855 2742 
Q 2594 3103 2138 3103 
Q 1681 3103 1420 2742 
Q 1159 2381 1159 1747 
Q 1159 1113 1420 752 
Q 1681 391 2138 391 
Q 2594 391 2855 752 
Q 3116 1113 3116 1747 
z
M 1159 2969 
Q 1341 3281 1617 3432 
Q 1894 3584 2278 3584 
Q 2916 3584 3314 3078 
Q 3713 2572 3713 1747 
Q 3713 922 3314 415 
Q 2916 -91 2278 -91 
Q 1894 -91 1617 61 
Q 1341 213 1159 525 
L 1159 0 
L 581 0 
L 581 4863 
L 1159 4863 
L 1159 2969 
z
" transform="scale(0.015625)"/>
       <path id="DejaVuSans-65" d="M 3597 1894 
L 3597 1613 
L 953 1613 
Q 991 1019 1311 708 
Q 1631 397 2203 397 
Q 2534 397 2845 478 
Q 3156 559 3463 722 
L 3463 178 
Q 3153 47 2828 -22 
Q 2503 -91 2169 -91 
Q 1331 -91 842 396 
Q 353 884 353 1716 
Q 353 2575 817 3079 
Q 1281 3584 2069 3584 
Q 2775 3584 3186 3129 
Q 3597 2675 3597 1894 
z
M 3022 2063 
Q 3016 2534 2758 2815 
Q 2500 3097 2075 3097 
Q 1594 3097 1305 2825 
Q 1016 2553 972 2059 
L 3022 2063 
z
" transform="scale(0.015625)"/>
       <path id="DejaVuSans-72" d="M 2631 2963 
Q 2534 3019 2420 3045 
Q 2306 3072 2169 3072 
Q 1681 3072 1420 2755 
Q 1159 2438 1159 1844 
L 1159 0 
L 581 0 
L 581 3500 
L 1159 3500 
L 1159 2956 
Q 1341 3275 1631 3429 
Q 1922 3584 2338 3584 
Q 2397 3584 2469 3576 
Q 2541 3569 2628 3553 
L 2631 2963 
z
" transform="scale(0.015625)"/>
       <path id="DejaVuSans-20" transform="scale(0.015625)"/>
       <path id="DejaVuSans-6f" d="M 1959 3097 
Q 1497 3097 1228 2736 
Q 959 2375 959 1747 
Q 959 1119 1226 758 
Q 1494 397 1959 397 
Q 2419 397 2687 759 
Q 2956 1122 2956 1747 
Q 2956 2369 2687 2733 
Q 2419 3097 1959 3097 
z
M 1959 3584 
Q 2709 3584 3137 3096 
Q 3566 2609 3566 1747 
Q 3566 888 3137 398 
Q 2709 -91 1959 -91 
Q 1206 -91 779 398 
Q 353 888 353 1747 
Q 353 2609 779 3096 
Q 1206 3584 1959 3584 
z
" transform="scale(0.015625)"/>
       <path id="DejaVuSans-66" d="M 2375 4863 
L 2375 4384 
L 1825 4384 
Q 1516 4384 1395 4259 
Q 1275 4134 1275 3809 
L 1275 3500 
L 2222 3500 
L 2222 3053 
L 1275 3053 
L 1275 0 
L 697 0 
L 697 3053 
L 147 3053 
L 147 3500 
L 697 3500 
L 697 3744 
Q 697 4328 969 4595 
Q 1241 4863 1831 4863 
L 2375 4863 
z
" transform="scale(0.015625)"/>
       <path id="DejaVuSans-41" d="M 2188 4044 
L 1331 1722 
L 3047 1722 
L 2188 4044 
z
M 1831 4666 
L 2547 4666 
L 4325 0 
L 3669 0 
L 3244 1197 
L 1141 1197 
L 716 0 
L 50 0 
L 1831 4666 
z
" transform="scale(0.015625)"/>
       <path id="DejaVuSans-74" d="M 1172 4494 
L 1172 3500 
L 2356 3500 
L 2356 3053 
L 1172 3053 
L 1172 1153 
Q 1172 725 1289 603 
Q 1406 481 1766 481 
L 2356 481 
L 2356 0 
L 1766 0 
Q 1100 0 847 248 
Q 594 497 594 1153 
L 594 3053 
L 172 3053 
L 172 3500 
L 594 3500 
L 594 4494 
L 1172 4494 
z
" transform="scale(0.015625)"/>
       <path id="DejaVuSans-69" d="M 603 3500 
L 1178 3500 
L 1178 0 
L 603 0 
L 603 3500 
z
M 603 4863 
L 1178 4863 
L 1178 4134 
L 603 4134 
L 603 4863 
z
" transform="scale(0.015625)"/>
       <path id="DejaVuSans-73" d="M 2834 3397 
L 2834 2853 
Q 2591 2978 2328 3040 
Q 2066 3103 1784 3103 
Q 1356 3103 1142 2972 
Q 928 2841 928 2578 
Q 928 2378 1081 2264 
Q 1234 2150 1697 2047 
L 1894 2003 
Q 2506 1872 2764 1633 
Q 3022 1394 3022 966 
Q 3022 478 2636 193 
Q 2250 -91 1575 -91 
Q 1294 -91 989 -36 
Q 684 19 347 128 
L 347 722 
Q 666 556 975 473 
Q 1284 391 1588 391 
Q 1994 391 2212 530 
Q 2431 669 2431 922 
Q 2431 1156 2273 1281 
Q 2116 1406 1581 1522 
L 1381 1569 
Q 847 1681 609 1914 
Q 372 2147 372 2553 
Q 372 3047 722 3315 
Q 1072 3584 1716 3584 
Q 2034 3584 2315 3537 
Q 2597 3491 2834 3397 
z
" transform="scale(0.015625)"/>
       <path id="DejaVuSans-6e" d="M 3513 2113 
L 3513 0 
L 2938 0 
L 2938 2094 
Q 2938 2591 2744 2837 
Q 2550 3084 2163 3084 
Q 1697 3084 1428 2787 
Q 1159 2491 1159 1978 
L 1159 0 
L 581 0 
L 581 3500 
L 1159 3500 
L 1159 2956 
Q 1366 3272 1645 3428 
Q 1925 3584 2291 3584 
Q 2894 3584 3203 3211 
Q 3513 2838 3513 2113 
z
" transform="scale(0.015625)"/>
       <path id="DejaVuSans-68" d="M 3513 2113 
L 3513 0 
L 2938 0 
L 2938 2094 
Q 2938 2591 2744 2837 
Q 2550 3084 2163 3084 
Q 1697 3084 1428 2787 
Q 1159 2491 1159 1978 
L 1159 0 
L 581 0 
L 581 4863 
L 1159 4863 
L 1159 2956 
Q 1366 3272 1645 3428 
Q 1925 3584 2291 3584 
Q 2894 3584 3203 3211 
Q 3513 2838 3513 2113 
z
" transform="scale(0.015625)"/>
       <path id="DejaVuSans-50" d="M 1259 4147 
L 1259 2394 
L 2053 2394 
Q 2494 2394 2734 2622 
Q 2975 2850 2975 3272 
Q 2975 3691 2734 3919 
Q 2494 4147 2053 4147 
L 1259 4147 
z
M 628 4666 
L 2053 4666 
Q 2838 4666 3239 4311 
Q 3641 3956 3641 3272 
Q 3641 2581 3239 2228 
Q 2838 1875 2053 1875 
L 1259 1875 
L 1259 0 
L 628 0 
L 628 4666 
z
" transform="scale(0.015625)"/>
       <path id="DejaVuSans-6c" d="M 603 4863 
L 1178 4863 
L 1178 0 
L 603 0 
L 603 4863 
z
" transform="scale(0.015625)"/>
       <path id="DejaVuSans-63" d="M 3122 3366 
L 3122 2828 
Q 2878 2963 2633 3030 
Q 2388 3097 2138 3097 
Q 1578 3097 1268 2742 
Q 959 2388 959 1747 
Q 959 1106 1268 751 
Q 1578 397 2138 397 
Q 2388 397 2633 464 
Q 2878 531 3122 666 
L 3122 134 
Q 2881 22 2623 -34 
Q 2366 -91 2075 -91 
Q 1284 -91 818 406 
Q 353 903 353 1747 
Q 353 2603 823 3093 
Q 1294 3584 2113 3584 
Q 2378 3584 2631 3529 
Q 2884 3475 3122 3366 
z
" transform="scale(0.015625)"/>
       <path id="DejaVuSans-79" d="M 2059 -325 
Q 1816 -950 1584 -1140 
Q 1353 -1331 966 -1331 
L 506 -1331 
L 506 -850 
L 844 -850 
Q 1081 -850 1212 -737 
Q 1344 -625 1503 -206 
L 1606 56 
L 191 3500 
L 800 3500 
L 1894 763 
L 2988 3500 
L 3597 3500 
L 2059 -325 
z
" transform="scale(0.015625)"/>
      </defs>
      <use xlink:href="#DejaVuSans-4e"/>
      <use xlink:href="#DejaVuSans-75" x="74.804688"/>
      <use xlink:href="#DejaVuSans-6d" x="138.183594"/>
      <use xlink:href="#DejaVuSans-62" x="235.595703"/>
      <use xlink:href="#DejaVuSans-65" x="299.072266"/>
      <use xlink:href="#DejaVuSans-72" x="360.595703"/>
      <use xlink:href="#DejaVuSans-20" x="401.708984"/>
      <use xlink:href="#DejaVuSans-6f" x="433.496094"/>
      <use xlink:href="#DejaVuSans-66" x="494.677734"/>
      <use xlink:href="#DejaVuSans-20" x="529.882812"/>
      <use xlink:href="#DejaVuSans-41" x="561.669922"/>
      <use xlink:href="#DejaVuSans-74" x="628.328125"/>
      <use xlink:href="#DejaVuSans-74" x="667.537109"/>
      <use xlink:href="#DejaVuSans-72" x="706.746094"/>
      <use xlink:href="#DejaVuSans-69" x="747.859375"/>
      <use xlink:href="#DejaVuSans-62" x="775.642578"/>
      <use xlink:href="#DejaVuSans-75" x="839.119141"/>
      <use xlink:href="#DejaVuSans-74" x="902.498047"/>
      <use xlink:href="#DejaVuSans-65" x="941.707031"/>
      <use xlink:href="#DejaVuSans-73" x="1003.230469"/>
      <use xlink:href="#DejaVuSans-20" x="1055.330078"/>
      <use xlink:href="#DejaVuSans-69" x="1087.117188"/>
      <use xlink:href="#DejaVuSans-6e" x="1114.900391"/>
      <use xlink:href="#DejaVuSans-20" x="1178.279297"/>
      <use xlink:href="#DejaVuSans-74" x="1210.066406"/>
      <use xlink:href="#DejaVuSans-68" x="1249.275391"/>
      <use xlink:href="#DejaVuSans-65" x="1312.654297"/>
      <use xlink:href="#DejaVuSans-20" x="1374.177734"/>
      <use xlink:href="#DejaVuSans-50" x="1405.964844"/>
      <use xlink:href="#DejaVuSans-6f" x="1462.642578"/>
      <use xlink:href="#DejaVuSans-6c" x="1523.824219"/>
      <use xlink:href="#DejaVuSans-69" x="1551.607422"/>
      <use xlink:href="#DejaVuSans-63" x="1579.390625"/>
      <use xlink:href="#DejaVuSans-79" x="1634.371094"/>
     </g>
    </g>
   </g>
   <g id="matplotlib.axis_2">
    <g id="ytick_1">
     <g id="line2d_6">
      <defs>
       <path id="mb0dc18d1db" d="M 0 0 
L -3.5 0 
" style="stroke: #000000; stroke-width: 0.8"/>
      </defs>
      <g>
       <use xlink:href="#mb0dc18d1db" x="43.78125" y="280.988213" style="stroke: #000000; stroke-width: 0.8"/>
      </g>
     </g>
     <g id="text_7">
      <!-- 0.0 -->
      <g transform="translate(20.878125 284.787432) scale(0.1 -0.1)">
       <defs>
        <path id="DejaVuSans-2e" d="M 684 794 
L 1344 794 
L 1344 0 
L 684 0 
L 684 794 
z
" transform="scale(0.015625)"/>
       </defs>
       <use xlink:href="#DejaVuSans-30"/>
       <use xlink:href="#DejaVuSans-2e" x="63.623047"/>
       <use xlink:href="#DejaVuSans-30" x="95.410156"/>
      </g>
     </g>
    </g>
    <g id="ytick_2">
     <g id="line2d_7">
      <g>
       <use xlink:href="#mb0dc18d1db" x="43.78125" y="242.936319" style="stroke: #000000; stroke-width: 0.8"/>
      </g>
     </g>
     <g id="text_8">
      <!-- 0.2 -->
      <g transform="translate(20.878125 246.735538) scale(0.1 -0.1)">
       <use xlink:href="#DejaVuSans-30"/>
       <use xlink:href="#DejaVuSans-2e" x="63.623047"/>
       <use xlink:href="#DejaVuSans-32" x="95.410156"/>
      </g>
     </g>
    </g>
    <g id="ytick_3">
     <g id="line2d_8">
      <g>
       <use xlink:href="#mb0dc18d1db" x="43.78125" y="204.884425" style="stroke: #000000; stroke-width: 0.8"/>
      </g>
     </g>
     <g id="text_9">
      <!-- 0.4 -->
      <g transform="translate(20.878125 208.683644) scale(0.1 -0.1)">
       <use xlink:href="#DejaVuSans-30"/>
       <use xlink:href="#DejaVuSans-2e" x="63.623047"/>
       <use xlink:href="#DejaVuSans-34" x="95.410156"/>
      </g>
     </g>
    </g>
    <g id="ytick_4">
     <g id="line2d_9">
      <g>
       <use xlink:href="#mb0dc18d1db" x="43.78125" y="166.832531" style="stroke: #000000; stroke-width: 0.8"/>
      </g>
     </g>
     <g id="text_10">
      <!-- 0.6 -->
      <g transform="translate(20.878125 170.631749) scale(0.1 -0.1)">
       <use xlink:href="#DejaVuSans-30"/>
       <use xlink:href="#DejaVuSans-2e" x="63.623047"/>
       <use xlink:href="#DejaVuSans-36" x="95.410156"/>
      </g>
     </g>
    </g>
    <g id="ytick_5">
     <g id="line2d_10">
      <g>
       <use xlink:href="#mb0dc18d1db" x="43.78125" y="128.780637" style="stroke: #000000; stroke-width: 0.8"/>
      </g>
     </g>
     <g id="text_11">
      <!-- 0.8 -->
      <g transform="translate(20.878125 132.579855) scale(0.1 -0.1)">
       <use xlink:href="#DejaVuSans-30"/>
       <use xlink:href="#DejaVuSans-2e" x="63.623047"/>
       <use xlink:href="#DejaVuSans-38" x="95.410156"/>
      </g>
     </g>
    </g>
    <g id="ytick_6">
     <g id="line2d_11">
      <g>
       <use xlink:href="#mb0dc18d1db" x="43.78125" y="90.728743" style="stroke: #000000; stroke-width: 0.8"/>
      </g>
     </g>
     <g id="text_12">
      <!-- 1.0 -->
      <g transform="translate(20.878125 94.527961) scale(0.1 -0.1)">
       <use xlink:href="#DejaVuSans-31"/>
       <use xlink:href="#DejaVuSans-2e" x="63.623047"/>
       <use xlink:href="#DejaVuSans-30" x="95.410156"/>
      </g>
     </g>
    </g>
    <g id="ytick_7">
     <g id="line2d_12">
      <g>
       <use xlink:href="#mb0dc18d1db" x="43.78125" y="52.676848" style="stroke: #000000; stroke-width: 0.8"/>
      </g>
     </g>
     <g id="text_13">
      <!-- 1.2 -->
      <g transform="translate(20.878125 56.476067) scale(0.1 -0.1)">
       <use xlink:href="#DejaVuSans-31"/>
       <use xlink:href="#DejaVuSans-2e" x="63.623047"/>
       <use xlink:href="#DejaVuSans-32" x="95.410156"/>
      </g>
     </g>
    </g>
    <g id="text_14">
     <!-- time [ms] -->
     <g transform="translate(14.798438 179.635844) rotate(-90) scale(0.1 -0.1)">
      <defs>
       <path id="DejaVuSans-5b" d="M 550 4863 
L 1875 4863 
L 1875 4416 
L 1125 4416 
L 1125 -397 
L 1875 -397 
L 1875 -844 
L 550 -844 
L 550 4863 
z
" transform="scale(0.015625)"/>
       <path id="DejaVuSans-5d" d="M 1947 4863 
L 1947 -844 
L 622 -844 
L 622 -397 
L 1369 -397 
L 1369 4416 
L 622 4416 
L 622 4863 
L 1947 4863 
z
" transform="scale(0.015625)"/>
      </defs>
      <use xlink:href="#DejaVuSans-74"/>
      <use xlink:href="#DejaVuSans-69" x="39.208984"/>
      <use xlink:href="#DejaVuSans-6d" x="66.992188"/>
      <use xlink:href="#DejaVuSans-65" x="164.404297"/>
      <use xlink:href="#DejaVuSans-20" x="225.927734"/>
      <use xlink:href="#DejaVuSans-5b" x="257.714844"/>
      <use xlink:href="#DejaVuSans-6d" x="296.728516"/>
      <use xlink:href="#DejaVuSans-73" x="394.140625"/>
      <use xlink:href="#DejaVuSans-5d" x="446.240234"/>
     </g>
    </g>
   </g>
   <g id="line2d_13">
    <path d="M 60.013977 248.323284 
L 96.086705 225.316475 
L 132.159432 202.045169 
L 168.232159 176.605997 
L 204.304886 154.747344 
L 240.377614 129.263078 
L 276.450341 106.07129 
L 312.523068 85.509157 
L 348.595795 59.361476 
L 384.668523 34.414125 
" clip-path="url(#pbfea5a2dbd)" style="fill: none; stroke: #1f77b4; stroke-width: 1.5; stroke-linecap: square"/>
    <defs>
     <path id="mf1c4da54e7" d="M 0 3 
C 0.795609 3 1.55874 2.683901 2.12132 2.12132 
C 2.683901 1.55874 3 0.795609 3 0 
C 3 -0.795609 2.683901 -1.55874 2.12132 -2.12132 
C 1.55874 -2.683901 0.795609 -3 0 -3 
C -0.795609 -3 -1.55874 -2.683901 -2.12132 -2.12132 
C -2.683901 -1.55874 -3 -0.795609 -3 0 
C -3 0.795609 -2.683901 1.55874 -2.12132 2.12132 
C -1.55874 2.683901 -0.795609 3 0 3 
z
" style="stroke: #1f77b4"/>
    </defs>
    <g clip-path="url(#pbfea5a2dbd)">
     <use xlink:href="#mf1c4da54e7" x="60.013977" y="248.323284" style="fill: #1f77b4; stroke: #1f77b4"/>
     <use xlink:href="#mf1c4da54e7" x="96.086705" y="225.316475" style="fill: #1f77b4; stroke: #1f77b4"/>
     <use xlink:href="#mf1c4da54e7" x="132.159432" y="202.045169" style="fill: #1f77b4; stroke: #1f77b4"/>
     <use xlink:href="#mf1c4da54e7" x="168.232159" y="176.605997" style="fill: #1f77b4; stroke: #1f77b4"/>
     <use xlink:href="#mf1c4da54e7" x="204.304886" y="154.747344" style="fill: #1f77b4; stroke: #1f77b4"/>
     <use xlink:href="#mf1c4da54e7" x="240.377614" y="129.263078" style="fill: #1f77b4; stroke: #1f77b4"/>
     <use xlink:href="#mf1c4da54e7" x="276.450341" y="106.07129" style="fill: #1f77b4; stroke: #1f77b4"/>
     <use xlink:href="#mf1c4da54e7" x="312.523068" y="85.509157" style="fill: #1f77b4; stroke: #1f77b4"/>
     <use xlink:href="#mf1c4da54e7" x="348.595795" y="59.361476" style="fill: #1f77b4; stroke: #1f77b4"/>
     <use xlink:href="#mf1c4da54e7" x="384.668523" y="34.414125" style="fill: #1f77b4; stroke: #1f77b4"/>
    </g>
   </g>
   <g id="line2d_14">
    <path d="M 60.013977 266.864934 
L 96.086705 266.693024 
L 132.159432 266.791866 
L 168.232159 266.657465 
L 204.304886 266.607336 
L 240.377614 266.632253 
L 276.450341 266.446267 
L 312.523068 266.606946 
L 348.595795 266.577221 
L 384.668523 266.36082 
" clip-path="url(#pbfea5a2dbd)" style="fill: none; stroke: #ff7f0e; stroke-width: 1.5; stroke-linecap: square"/>
    <defs>
     <path id="ma1adff4a98" d="M 0 3 
C 0.795609 3 1.55874 2.683901 2.12132 2.12132 
C 2.683901 1.55874 3 0.795609 3 0 
C 3 -0.795609 2.683901 -1.55874 2.12132 -2.12132 
C 1.55874 -2.683901 0.795609 -3 0 -3 
C -0.795609 -3 -1.55874 -2.683901 -2.12132 -2.12132 
C -2.683901 -1.55874 -3 -0.795609 -3 0 
C -3 0.795609 -2.683901 1.55874 -2.12132 2.12132 
C -1.55874 2.683901 -0.795609 3 0 3 
z
" style="stroke: #ff7f0e"/>
    </defs>
    <g clip-path="url(#pbfea5a2dbd)">
     <use xlink:href="#ma1adff4a98" x="60.013977" y="266.864934" style="fill: #ff7f0e; stroke: #ff7f0e"/>
     <use xlink:href="#ma1adff4a98" x="96.086705" y="266.693024" style="fill: #ff7f0e; stroke: #ff7f0e"/>
     <use xlink:href="#ma1adff4a98" x="132.159432" y="266.791866" style="fill: #ff7f0e; stroke: #ff7f0e"/>
     <use xlink:href="#ma1adff4a98" x="168.232159" y="266.657465" style="fill: #ff7f0e; stroke: #ff7f0e"/>
     <use xlink:href="#ma1adff4a98" x="204.304886" y="266.607336" style="fill: #ff7f0e; stroke: #ff7f0e"/>
     <use xlink:href="#ma1adff4a98" x="240.377614" y="266.632253" style="fill: #ff7f0e; stroke: #ff7f0e"/>
     <use xlink:href="#ma1adff4a98" x="276.450341" y="266.446267" style="fill: #ff7f0e; stroke: #ff7f0e"/>
     <use xlink:href="#ma1adff4a98" x="312.523068" y="266.606946" style="fill: #ff7f0e; stroke: #ff7f0e"/>
     <use xlink:href="#ma1adff4a98" x="348.595795" y="266.577221" style="fill: #ff7f0e; stroke: #ff7f0e"/>
     <use xlink:href="#ma1adff4a98" x="384.668523" y="266.36082" style="fill: #ff7f0e; stroke: #ff7f0e"/>
    </g>
   </g>
   <g id="line2d_15">
    <path d="M 60.013977 268.90641 
L 96.086705 260.013899 
L 132.159432 251.346716 
L 168.232159 242.219731 
L 204.304886 233.318429 
L 240.377614 224.195101 
L 276.450341 214.999371 
L 312.523068 206.751159 
L 348.595795 196.400801 
L 384.668523 187.437481 
" clip-path="url(#pbfea5a2dbd)" style="fill: none; stroke: #2ca02c; stroke-width: 1.5; stroke-linecap: square"/>
    <defs>
     <path id="mcd11a0a2f8" d="M 0 3 
C 0.795609 3 1.55874 2.683901 2.12132 2.12132 
C 2.683901 1.55874 3 0.795609 3 0 
C 3 -0.795609 2.683901 -1.55874 2.12132 -2.12132 
C 1.55874 -2.683901 0.795609 -3 0 -3 
C -0.795609 -3 -1.55874 -2.683901 -2.12132 -2.12132 
C -2.683901 -1.55874 -3 -0.795609 -3 0 
C -3 0.795609 -2.683901 1.55874 -2.12132 2.12132 
C -1.55874 2.683901 -0.795609 3 0 3 
z
" style="stroke: #2ca02c"/>
    </defs>
    <g clip-path="url(#pbfea5a2dbd)">
     <use xlink:href="#mcd11a0a2f8" x="60.013977" y="268.90641" style="fill: #2ca02c; stroke: #2ca02c"/>
     <use xlink:href="#mcd11a0a2f8" x="96.086705" y="260.013899" style="fill: #2ca02c; stroke: #2ca02c"/>
     <use xlink:href="#mcd11a0a2f8" x="132.159432" y="251.346716" style="fill: #2ca02c; stroke: #2ca02c"/>
     <use xlink:href="#mcd11a0a2f8" x="168.232159" y="242.219731" style="fill: #2ca02c; stroke: #2ca02c"/>
     <use xlink:href="#mcd11a0a2f8" x="204.304886" y="233.318429" style="fill: #2ca02c; stroke: #2ca02c"/>
     <use xlink:href="#mcd11a0a2f8" x="240.377614" y="224.195101" style="fill: #2ca02c; stroke: #2ca02c"/>
     <use xlink:href="#mcd11a0a2f8" x="276.450341" y="214.999371" style="fill: #2ca02c; stroke: #2ca02c"/>
     <use xlink:href="#mcd11a0a2f8" x="312.523068" y="206.751159" style="fill: #2ca02c; stroke: #2ca02c"/>
     <use xlink:href="#mcd11a0a2f8" x="348.595795" y="196.400801" style="fill: #2ca02c; stroke: #2ca02c"/>
     <use xlink:href="#mcd11a0a2f8" x="384.668523" y="187.437481" style="fill: #2ca02c; stroke: #2ca02c"/>
    </g>
   </g>
   <g id="line2d_16">
    <path d="M 60.013977 276.334125 
L 96.086705 276.320893 
L 132.159432 276.304073 
L 168.232159 276.295237 
L 204.304886 276.274271 
L 240.377614 276.266854 
L 276.450341 276.274398 
L 312.523068 276.243851 
L 348.595795 276.250188 
L 384.668523 276.23565 
" clip-path="url(#pbfea5a2dbd)" style="fill: none; stroke: #d62728; stroke-width: 1.5; stroke-linecap: square"/>
    <defs>
     <path id="m2e1c32bd1b" d="M 0 3 
C 0.795609 3 1.55874 2.683901 2.12132 2.12132 
C 2.683901 1.55874 3 0.795609 3 0 
C 3 -0.795609 2.683901 -1.55874 2.12132 -2.12132 
C 1.55874 -2.683901 0.795609 -3 0 -3 
C -0.795609 -3 -1.55874 -2.683901 -2.12132 -2.12132 
C -2.683901 -1.55874 -3 -0.795609 -3 0 
C -3 0.795609 -2.683901 1.55874 -2.12132 2.12132 
C -1.55874 2.683901 -0.795609 3 0 3 
z
" style="stroke: #d62728"/>
    </defs>
    <g clip-path="url(#pbfea5a2dbd)">
     <use xlink:href="#m2e1c32bd1b" x="60.013977" y="276.334125" style="fill: #d62728; stroke: #d62728"/>
     <use xlink:href="#m2e1c32bd1b" x="96.086705" y="276.320893" style="fill: #d62728; stroke: #d62728"/>
     <use xlink:href="#m2e1c32bd1b" x="132.159432" y="276.304073" style="fill: #d62728; stroke: #d62728"/>
     <use xlink:href="#m2e1c32bd1b" x="168.232159" y="276.295237" style="fill: #d62728; stroke: #d62728"/>
     <use xlink:href="#m2e1c32bd1b" x="204.304886" y="276.274271" style="fill: #d62728; stroke: #d62728"/>
     <use xlink:href="#m2e1c32bd1b" x="240.377614" y="276.266854" style="fill: #d62728; stroke: #d62728"/>
     <use xlink:href="#m2e1c32bd1b" x="276.450341" y="276.274398" style="fill: #d62728; stroke: #d62728"/>
     <use xlink:href="#m2e1c32bd1b" x="312.523068" y="276.243851" style="fill: #d62728; stroke: #d62728"/>
     <use xlink:href="#m2e1c32bd1b" x="348.595795" y="276.250188" style="fill: #d62728; stroke: #d62728"/>
     <use xlink:href="#m2e1c32bd1b" x="384.668523" y="276.23565" style="fill: #d62728; stroke: #d62728"/>
    </g>
   </g>
   <g id="patch_3">
    <path d="M 43.78125 288.430125 
L 43.78125 22.318125 
" style="fill: none; stroke: #000000; stroke-width: 0.8; stroke-linejoin: miter; stroke-linecap: square"/>
   </g>
   <g id="patch_4">
    <path d="M 400.90125 288.430125 
L 400.90125 22.318125 
" style="fill: none; stroke: #000000; stroke-width: 0.8; stroke-linejoin: miter; stroke-linecap: square"/>
   </g>
   <g id="patch_5">
    <path d="M 43.78125 288.430125 
L 400.90125 288.430125 
" style="fill: none; stroke: #000000; stroke-width: 0.8; stroke-linejoin: miter; stroke-linecap: square"/>
   </g>
   <g id="patch_6">
    <path d="M 43.78125 22.318125 
L 400.90125 22.318125 
" style="fill: none; stroke: #000000; stroke-width: 0.8; stroke-linejoin: miter; stroke-linecap: square"/>
   </g>
   <g id="text_15">
    <!-- Comparison of the time to decrypt or encrypt on Raspi4 and Desktop -->
    <g transform="translate(14.506875 16.318125) scale(0.12 -0.12)">
     <defs>
      <path id="DejaVuSans-43" d="M 4122 4306 
L 4122 3641 
Q 3803 3938 3442 4084 
Q 3081 4231 2675 4231 
Q 1875 4231 1450 3742 
Q 1025 3253 1025 2328 
Q 1025 1406 1450 917 
Q 1875 428 2675 428 
Q 3081 428 3442 575 
Q 3803 722 4122 1019 
L 4122 359 
Q 3791 134 3420 21 
Q 3050 -91 2638 -91 
Q 1578 -91 968 557 
Q 359 1206 359 2328 
Q 359 3453 968 4101 
Q 1578 4750 2638 4750 
Q 3056 4750 3426 4639 
Q 3797 4528 4122 4306 
z
" transform="scale(0.015625)"/>
      <path id="DejaVuSans-70" d="M 1159 525 
L 1159 -1331 
L 581 -1331 
L 581 3500 
L 1159 3500 
L 1159 2969 
Q 1341 3281 1617 3432 
Q 1894 3584 2278 3584 
Q 2916 3584 3314 3078 
Q 3713 2572 3713 1747 
Q 3713 922 3314 415 
Q 2916 -91 2278 -91 
Q 1894 -91 1617 61 
Q 1341 213 1159 525 
z
M 3116 1747 
Q 3116 2381 2855 2742 
Q 2594 3103 2138 3103 
Q 1681 3103 1420 2742 
Q 1159 2381 1159 1747 
Q 1159 1113 1420 752 
Q 1681 391 2138 391 
Q 2594 391 2855 752 
Q 3116 1113 3116 1747 
z
" transform="scale(0.015625)"/>
      <path id="DejaVuSans-61" d="M 2194 1759 
Q 1497 1759 1228 1600 
Q 959 1441 959 1056 
Q 959 750 1161 570 
Q 1363 391 1709 391 
Q 2188 391 2477 730 
Q 2766 1069 2766 1631 
L 2766 1759 
L 2194 1759 
z
M 3341 1997 
L 3341 0 
L 2766 0 
L 2766 531 
Q 2569 213 2275 61 
Q 1981 -91 1556 -91 
Q 1019 -91 701 211 
Q 384 513 384 1019 
Q 384 1609 779 1909 
Q 1175 2209 1959 2209 
L 2766 2209 
L 2766 2266 
Q 2766 2663 2505 2880 
Q 2244 3097 1772 3097 
Q 1472 3097 1187 3025 
Q 903 2953 641 2809 
L 641 3341 
Q 956 3463 1253 3523 
Q 1550 3584 1831 3584 
Q 2591 3584 2966 3190 
Q 3341 2797 3341 1997 
z
" transform="scale(0.015625)"/>
      <path id="DejaVuSans-64" d="M 2906 2969 
L 2906 4863 
L 3481 4863 
L 3481 0 
L 2906 0 
L 2906 525 
Q 2725 213 2448 61 
Q 2172 -91 1784 -91 
Q 1150 -91 751 415 
Q 353 922 353 1747 
Q 353 2572 751 3078 
Q 1150 3584 1784 3584 
Q 2172 3584 2448 3432 
Q 2725 3281 2906 2969 
z
M 947 1747 
Q 947 1113 1208 752 
Q 1469 391 1925 391 
Q 2381 391 2643 752 
Q 2906 1113 2906 1747 
Q 2906 2381 2643 2742 
Q 2381 3103 1925 3103 
Q 1469 3103 1208 2742 
Q 947 2381 947 1747 
z
" transform="scale(0.015625)"/>
      <path id="DejaVuSans-52" d="M 2841 2188 
Q 3044 2119 3236 1894 
Q 3428 1669 3622 1275 
L 4263 0 
L 3584 0 
L 2988 1197 
Q 2756 1666 2539 1819 
Q 2322 1972 1947 1972 
L 1259 1972 
L 1259 0 
L 628 0 
L 628 4666 
L 2053 4666 
Q 2853 4666 3247 4331 
Q 3641 3997 3641 3322 
Q 3641 2881 3436 2590 
Q 3231 2300 2841 2188 
z
M 1259 4147 
L 1259 2491 
L 2053 2491 
Q 2509 2491 2742 2702 
Q 2975 2913 2975 3322 
Q 2975 3731 2742 3939 
Q 2509 4147 2053 4147 
L 1259 4147 
z
" transform="scale(0.015625)"/>
      <path id="DejaVuSans-44" d="M 1259 4147 
L 1259 519 
L 2022 519 
Q 2988 519 3436 956 
Q 3884 1394 3884 2338 
Q 3884 3275 3436 3711 
Q 2988 4147 2022 4147 
L 1259 4147 
z
M 628 4666 
L 1925 4666 
Q 3281 4666 3915 4102 
Q 4550 3538 4550 2338 
Q 4550 1131 3912 565 
Q 3275 0 1925 0 
L 628 0 
L 628 4666 
z
" transform="scale(0.015625)"/>
      <path id="DejaVuSans-6b" d="M 581 4863 
L 1159 4863 
L 1159 1991 
L 2875 3500 
L 3609 3500 
L 1753 1863 
L 3688 0 
L 2938 0 
L 1159 1709 
L 1159 0 
L 581 0 
L 581 4863 
z
" transform="scale(0.015625)"/>
     </defs>
     <use xlink:href="#DejaVuSans-43"/>
     <use xlink:href="#DejaVuSans-6f" x="69.824219"/>
     <use xlink:href="#DejaVuSans-6d" x="131.005859"/>
     <use xlink:href="#DejaVuSans-70" x="228.417969"/>
     <use xlink:href="#DejaVuSans-61" x="291.894531"/>
     <use xlink:href="#DejaVuSans-72" x="353.173828"/>
     <use xlink:href="#DejaVuSans-69" x="394.287109"/>
     <use xlink:href="#DejaVuSans-73" x="422.070312"/>
     <use xlink:href="#DejaVuSans-6f" x="474.169922"/>
     <use xlink:href="#DejaVuSans-6e" x="535.351562"/>
     <use xlink:href="#DejaVuSans-20" x="598.730469"/>
     <use xlink:href="#DejaVuSans-6f" x="630.517578"/>
     <use xlink:href="#DejaVuSans-66" x="691.699219"/>
     <use xlink:href="#DejaVuSans-20" x="726.904297"/>
     <use xlink:href="#DejaVuSans-74" x="758.691406"/>
     <use xlink:href="#DejaVuSans-68" x="797.900391"/>
     <use xlink:href="#DejaVuSans-65" x="861.279297"/>
     <use xlink:href="#DejaVuSans-20" x="922.802734"/>
     <use xlink:href="#DejaVuSans-74" x="954.589844"/>
     <use xlink:href="#DejaVuSans-69" x="993.798828"/>
     <use xlink:href="#DejaVuSans-6d" x="1021.582031"/>
     <use xlink:href="#DejaVuSans-65" x="1118.994141"/>
     <use xlink:href="#DejaVuSans-20" x="1180.517578"/>
     <use xlink:href="#DejaVuSans-74" x="1212.304688"/>
     <use xlink:href="#DejaVuSans-6f" x="1251.513672"/>
     <use xlink:href="#DejaVuSans-20" x="1312.695312"/>
     <use xlink:href="#DejaVuSans-64" x="1344.482422"/>
     <use xlink:href="#DejaVuSans-65" x="1407.958984"/>
     <use xlink:href="#DejaVuSans-63" x="1469.482422"/>
     <use xlink:href="#DejaVuSans-72" x="1524.462891"/>
     <use xlink:href="#DejaVuSans-79" x="1565.576172"/>
     <use xlink:href="#DejaVuSans-70" x="1624.755859"/>
     <use xlink:href="#DejaVuSans-74" x="1688.232422"/>
     <use xlink:href="#DejaVuSans-20" x="1727.441406"/>
     <use xlink:href="#DejaVuSans-6f" x="1759.228516"/>
     <use xlink:href="#DejaVuSans-72" x="1820.410156"/>
     <use xlink:href="#DejaVuSans-20" x="1861.523438"/>
     <use xlink:href="#DejaVuSans-65" x="1893.310547"/>
     <use xlink:href="#DejaVuSans-6e" x="1954.833984"/>
     <use xlink:href="#DejaVuSans-63" x="2018.212891"/>
     <use xlink:href="#DejaVuSans-72" x="2073.193359"/>
     <use xlink:href="#DejaVuSans-79" x="2114.306641"/>
     <use xlink:href="#DejaVuSans-70" x="2173.486328"/>
     <use xlink:href="#DejaVuSans-74" x="2236.962891"/>
     <use xlink:href="#DejaVuSans-20" x="2276.171875"/>
     <use xlink:href="#DejaVuSans-6f" x="2307.958984"/>
     <use xlink:href="#DejaVuSans-6e" x="2369.140625"/>
     <use xlink:href="#DejaVuSans-20" x="2432.519531"/>
     <use xlink:href="#DejaVuSans-52" x="2464.306641"/>
     <use xlink:href="#DejaVuSans-61" x="2531.539062"/>
     <use xlink:href="#DejaVuSans-73" x="2592.818359"/>
     <use xlink:href="#DejaVuSans-70" x="2644.917969"/>
     <use xlink:href="#DejaVuSans-69" x="2708.394531"/>
     <use xlink:href="#DejaVuSans-34" x="2736.177734"/>
     <use xlink:href="#DejaVuSans-20" x="2799.800781"/>
     <use xlink:href="#DejaVuSans-61" x="2831.587891"/>
     <use xlink:href="#DejaVuSans-6e" x="2892.867188"/>
     <use xlink:href="#DejaVuSans-64" x="2956.246094"/>
     <use xlink:href="#DejaVuSans-20" x="3019.722656"/>
     <use xlink:href="#DejaVuSans-44" x="3051.509766"/>
     <use xlink:href="#DejaVuSans-65" x="3128.511719"/>
     <use xlink:href="#DejaVuSans-73" x="3190.035156"/>
     <use xlink:href="#DejaVuSans-6b" x="3242.134766"/>
     <use xlink:href="#DejaVuSans-74" x="3300.044922"/>
     <use xlink:href="#DejaVuSans-6f" x="3339.253906"/>
     <use xlink:href="#DejaVuSans-70" x="3400.435547"/>
    </g>
   </g>
   <g id="legend_1">
    <g id="patch_7">
     <path d="M 50.78125 90.143125 
L 183.90625 90.143125 
Q 185.90625 90.143125 185.90625 88.143125 
L 185.90625 29.318125 
Q 185.90625 27.318125 183.90625 27.318125 
L 50.78125 27.318125 
Q 48.78125 27.318125 48.78125 29.318125 
L 48.78125 88.143125 
Q 48.78125 90.143125 50.78125 90.143125 
z
" style="fill: #ffffff; opacity: 0.8; stroke: #cccccc; stroke-linejoin: miter"/>
    </g>
    <g id="line2d_17">
     <path d="M 52.78125 35.416562 
L 62.78125 35.416562 
L 72.78125 35.416562 
" style="fill: none; stroke: #1f77b4; stroke-width: 1.5; stroke-linecap: square"/>
     <g>
      <use xlink:href="#mf1c4da54e7" x="62.78125" y="35.416562" style="fill: #1f77b4; stroke: #1f77b4"/>
     </g>
    </g>
    <g id="text_16">
     <!-- Raspi4_Encryption -->
     <g transform="translate(80.78125 38.916562) scale(0.1 -0.1)">
      <defs>
       <path id="DejaVuSans-5f" d="M 3263 -1063 
L 3263 -1509 
L -63 -1509 
L -63 -1063 
L 3263 -1063 
z
" transform="scale(0.015625)"/>
       <path id="DejaVuSans-45" d="M 628 4666 
L 3578 4666 
L 3578 4134 
L 1259 4134 
L 1259 2753 
L 3481 2753 
L 3481 2222 
L 1259 2222 
L 1259 531 
L 3634 531 
L 3634 0 
L 628 0 
L 628 4666 
z
" transform="scale(0.015625)"/>
      </defs>
      <use xlink:href="#DejaVuSans-52"/>
      <use xlink:href="#DejaVuSans-61" x="67.232422"/>
      <use xlink:href="#DejaVuSans-73" x="128.511719"/>
      <use xlink:href="#DejaVuSans-70" x="180.611328"/>
      <use xlink:href="#DejaVuSans-69" x="244.087891"/>
      <use xlink:href="#DejaVuSans-34" x="271.871094"/>
      <use xlink:href="#DejaVuSans-5f" x="335.494141"/>
      <use xlink:href="#DejaVuSans-45" x="385.494141"/>
      <use xlink:href="#DejaVuSans-6e" x="448.677734"/>
      <use xlink:href="#DejaVuSans-63" x="512.056641"/>
      <use xlink:href="#DejaVuSans-72" x="567.037109"/>
      <use xlink:href="#DejaVuSans-79" x="608.150391"/>
      <use xlink:href="#DejaVuSans-70" x="667.330078"/>
      <use xlink:href="#DejaVuSans-74" x="730.806641"/>
      <use xlink:href="#DejaVuSans-69" x="770.015625"/>
      <use xlink:href="#DejaVuSans-6f" x="797.798828"/>
      <use xlink:href="#DejaVuSans-6e" x="858.980469"/>
     </g>
    </g>
    <g id="line2d_18">
     <path d="M 52.78125 50.372812 
L 62.78125 50.372812 
L 72.78125 50.372812 
" style="fill: none; stroke: #ff7f0e; stroke-width: 1.5; stroke-linecap: square"/>
     <g>
      <use xlink:href="#ma1adff4a98" x="62.78125" y="50.372812" style="fill: #ff7f0e; stroke: #ff7f0e"/>
     </g>
    </g>
    <g id="text_17">
     <!-- Raspi4_Encryption -->
     <g transform="translate(80.78125 53.872812) scale(0.1 -0.1)">
      <use xlink:href="#DejaVuSans-52"/>
      <use xlink:href="#DejaVuSans-61" x="67.232422"/>
      <use xlink:href="#DejaVuSans-73" x="128.511719"/>
      <use xlink:href="#DejaVuSans-70" x="180.611328"/>
      <use xlink:href="#DejaVuSans-69" x="244.087891"/>
      <use xlink:href="#DejaVuSans-34" x="271.871094"/>
      <use xlink:href="#DejaVuSans-5f" x="335.494141"/>
      <use xlink:href="#DejaVuSans-45" x="385.494141"/>
      <use xlink:href="#DejaVuSans-6e" x="448.677734"/>
      <use xlink:href="#DejaVuSans-63" x="512.056641"/>
      <use xlink:href="#DejaVuSans-72" x="567.037109"/>
      <use xlink:href="#DejaVuSans-79" x="608.150391"/>
      <use xlink:href="#DejaVuSans-70" x="667.330078"/>
      <use xlink:href="#DejaVuSans-74" x="730.806641"/>
      <use xlink:href="#DejaVuSans-69" x="770.015625"/>
      <use xlink:href="#DejaVuSans-6f" x="797.798828"/>
      <use xlink:href="#DejaVuSans-6e" x="858.980469"/>
     </g>
    </g>
    <g id="line2d_19">
     <path d="M 52.78125 65.329062 
L 62.78125 65.329062 
L 72.78125 65.329062 
" style="fill: none; stroke: #2ca02c; stroke-width: 1.5; stroke-linecap: square"/>
     <g>
      <use xlink:href="#mcd11a0a2f8" x="62.78125" y="65.329062" style="fill: #2ca02c; stroke: #2ca02c"/>
     </g>
    </g>
    <g id="text_18">
     <!-- Desktop_Encryption -->
     <g transform="translate(80.78125 68.829062) scale(0.1 -0.1)">
      <use xlink:href="#DejaVuSans-44"/>
      <use xlink:href="#DejaVuSans-65" x="77.001953"/>
      <use xlink:href="#DejaVuSans-73" x="138.525391"/>
      <use xlink:href="#DejaVuSans-6b" x="190.625"/>
      <use xlink:href="#DejaVuSans-74" x="248.535156"/>
      <use xlink:href="#DejaVuSans-6f" x="287.744141"/>
      <use xlink:href="#DejaVuSans-70" x="348.925781"/>
      <use xlink:href="#DejaVuSans-5f" x="412.402344"/>
      <use xlink:href="#DejaVuSans-45" x="462.402344"/>
      <use xlink:href="#DejaVuSans-6e" x="525.585938"/>
      <use xlink:href="#DejaVuSans-63" x="588.964844"/>
      <use xlink:href="#DejaVuSans-72" x="643.945312"/>
      <use xlink:href="#DejaVuSans-79" x="685.058594"/>
      <use xlink:href="#DejaVuSans-70" x="744.238281"/>
      <use xlink:href="#DejaVuSans-74" x="807.714844"/>
      <use xlink:href="#DejaVuSans-69" x="846.923828"/>
      <use xlink:href="#DejaVuSans-6f" x="874.707031"/>
      <use xlink:href="#DejaVuSans-6e" x="935.888672"/>
     </g>
    </g>
    <g id="line2d_20">
     <path d="M 52.78125 80.285312 
L 62.78125 80.285312 
L 72.78125 80.285312 
" style="fill: none; stroke: #d62728; stroke-width: 1.5; stroke-linecap: square"/>
     <g>
      <use xlink:href="#m2e1c32bd1b" x="62.78125" y="80.285312" style="fill: #d62728; stroke: #d62728"/>
     </g>
    </g>
    <g id="text_19">
     <!-- Desktop_Decryption -->
     <g transform="translate(80.78125 83.785312) scale(0.1 -0.1)">
      <use xlink:href="#DejaVuSans-44"/>
      <use xlink:href="#DejaVuSans-65" x="77.001953"/>
      <use xlink:href="#DejaVuSans-73" x="138.525391"/>
      <use xlink:href="#DejaVuSans-6b" x="190.625"/>
      <use xlink:href="#DejaVuSans-74" x="248.535156"/>
      <use xlink:href="#DejaVuSans-6f" x="287.744141"/>
      <use xlink:href="#DejaVuSans-70" x="348.925781"/>
      <use xlink:href="#DejaVuSans-5f" x="412.402344"/>
      <use xlink:href="#DejaVuSans-44" x="462.402344"/>
      <use xlink:href="#DejaVuSans-65" x="539.404297"/>
      <use xlink:href="#DejaVuSans-63" x="600.927734"/>
      <use xlink:href="#DejaVuSans-72" x="655.908203"/>
      <use xlink:href="#DejaVuSans-79" x="697.021484"/>
      <use xlink:href="#DejaVuSans-70" x="756.201172"/>
      <use xlink:href="#DejaVuSans-74" x="819.677734"/>
      <use xlink:href="#DejaVuSans-69" x="858.886719"/>
      <use xlink:href="#DejaVuSans-6f" x="886.669922"/>
      <use xlink:href="#DejaVuSans-6e" x="947.851562"/>
     </g>
    </g>
   </g>
  </g>
 </g>
 <defs>
  <clipPath id="pbfea5a2dbd">
   <rect x="43.78125" y="22.318125" width="357.12" height="266.112"/>
  </clipPath>
 </defs>
</svg>
